<svg xmlns="http://www.w3.org/2000/svg" width="1600" height="420" viewBox="0 0 1600 420" role="img" aria-labelledby="title desc">
  <title id="title">My VibeBar</title>
  <desc id="desc">Decorative enamel-bright banner for the VibeBar Waybar config.</desc>
  <defs>
    <linearGradient id="bg" x1="0%" y1="0%" x2="100%" y2="100%">
      <stop offset="0%" stop-color="#f8d44f"/>
      <stop offset="28%" stop-color="#ff8459"/>
      <stop offset="56%" stop-color="#ff4ea0"/>
      <stop offset="78%" stop-color="#5ad7ff"/>
      <stop offset="100%" stop-color="#57e88f"/>
    </linearGradient>
    <linearGradient id="panel" x1="0%" y1="0%" x2="100%" y2="0%">
      <stop offset="0%" stop-color="#fff2cf"/>
      <stop offset="100%" stop-color="#ffe18e"/>
    </linearGradient>
    <filter id="shadow" x="-10%" y="-20%" width="120%" height="140%">
      <feDropShadow dx="0" dy="10" stdDeviation="12" flood-color="#6b1d1d" flood-opacity="0.28"/>
    </filter>
  </defs>
  <rect width="1600" height="420" rx="38" fill="url(#bg)"/>
  <g opacity="0.25">
    <circle cx="145" cy="112" r="66" fill="#fff4d4"/>
    <circle cx="1455" cy="302" r="92" fill="#fff4d4"/>
    <path d="M0 304c154-44 252-49 401 0s241 53 395 0 259-54 405 0 244 56 399 0v116H0z" fill="#7a221f"/>
  </g>
  <g filter="url(#shadow)">
    <rect x="78" y="74" width="1444" height="214" rx="28" fill="url(#panel)" stroke="#7a221f" stroke-width="8"/>
    <rect x="108" y="104" width="1384" height="154" rx="18" fill="none" stroke="#7a221f" stroke-width="4" stroke-dasharray="18 14"/>
  </g>
  <g fill="#7a221f" font-family="'Noto Nastaliq Urdu', 'DejaVu Sans', sans-serif" text-anchor="middle">
    <text x="800" y="168" font-size="76" font-weight="700" letter-spacing="6">MY VIBEBAR</text>
    <text x="800" y="228" font-size="28" font-weight="600" letter-spacing="8">NIRI + WAYBAR WITH BUS-ART COLOR</text>
  </g>
  <g fill="#7a221f">
    <circle cx="168" cy="182" r="16"/>
    <circle cx="1432" cy="182" r="16"/>
    <path d="M214 318c68-25 134-27 198 0" stroke="#7a221f" stroke-width="8" stroke-linecap="round" fill="none"/>
    <path d="M1188 318c68-25 134-27 198 0" stroke="#7a221f" stroke-width="8" stroke-linecap="round" fill="none"/>
  </g>
</svg>
